<svg width="138" height="41" viewBox="0 0 138 41" fill="none" xmlns="http://www.w3.org/2000/svg">
<g clip-path="url(#clip0_14733_2117)">
<path d="M37.6515 32.7503C37.6515 36.7701 34.4801 40.0463 30.5244 40.117L0.846365 40.6469C0.38293 40.6549 0.00390625 40.2768 0.00390625 39.8062V27.3101C0.00390625 26.9301 0.255485 26.5973 0.617957 26.4981L23.5828 20.2458L34.0233 26.3687C36.2677 27.685 37.6515 30.1176 37.6515 32.7503Z" fill="white"/>
<path d="M46.5925 0.845109V13.3412C46.5925 13.7211 46.341 14.054 45.9787 14.1532L23.0139 20.4037L12.5717 14.281C10.3273 12.9646 8.94531 10.532 8.94531 7.89924C8.94531 3.87963 12.1165 0.603024 16.0723 0.532416L45.7504 0.00453196C46.2137 -0.00387384 46.5925 0.374387 46.5925 0.845109Z" fill="white"/>
<path d="M102.462 14.1434C101.808 12.3862 100.85 11.0527 99.5881 10.1448C98.3251 9.23841 96.744 8.78271 94.842 8.78271C93.395 8.78271 92.1106 9.18795 90.9897 9.99341C90.2845 10.5012 89.531 11.6026 89.0694 12.3492C88.9421 12.556 88.6275 12.4635 88.6275 12.218V9.83196C88.6275 9.54612 88.386 9.3208 88.1062 9.34603L82.767 9.82191C82.5189 9.84374 82.3281 10.0556 82.3281 10.3078V40.1596C82.3281 40.4284 82.5437 40.6471 82.8084 40.6471H88.1472C88.4122 40.6471 88.6275 40.4284 88.6275 40.1596V29.0734C88.6275 28.8296 88.9404 28.7355 89.0694 28.9422C89.531 29.6804 90.2845 30.7701 90.9897 31.2879C92.1106 32.1085 93.395 32.5205 94.842 32.5205C96.744 32.5205 98.3251 32.0648 99.5881 31.1585C100.852 30.2505 101.808 28.9103 102.462 27.1363C103.114 25.364 103.44 23.1949 103.44 20.6306C103.44 18.0663 103.114 15.9039 102.462 14.1434ZM96.8847 22.6181C96.8847 24.0306 96.4955 25.1689 95.7145 26.0332C94.933 26.8975 93.9481 27.3314 92.7561 27.3314C91.9598 27.3314 91.2512 27.2019 90.6271 26.9429C90.003 26.6823 89.5131 26.3006 89.1571 25.7961C88.8031 25.2917 88.6258 24.6931 88.6258 24.002V17.3012C88.6258 16.6085 88.8031 16.0098 89.1571 15.507C89.5131 15.0026 90.0016 14.6209 90.6271 14.3603C91.2512 14.1013 91.9598 13.9718 92.7561 13.9718C93.9463 13.9718 94.933 14.3973 95.7145 15.2464C96.4955 16.0989 96.8847 17.2423 96.8847 18.6851V22.6198V22.6181Z" fill="white"/>
<path d="M106.929 10.3062V31.5117C106.929 31.7807 107.145 31.9993 107.41 31.9993H112.749C113.014 31.9993 113.229 31.7807 113.229 31.5117V9.83372C113.229 9.54785 112.987 9.32256 112.708 9.34779L107.369 9.82027C107.12 9.84214 106.929 10.054 106.929 10.3062ZM112.868 0.891493C112.285 0.299606 111.357 0.00366211 110.08 0.00366211C108.804 0.00366211 107.873 0.299606 107.292 0.891493C106.71 1.4817 106.42 2.23838 106.42 3.16152V4.11325C106.42 5.00782 106.71 5.75608 107.292 6.36141C107.873 6.96674 108.804 7.26776 110.08 7.26776C111.357 7.26776 112.285 6.96509 112.868 6.36141C113.449 5.75608 113.74 5.00782 113.74 4.11325V3.16152C113.74 2.24006 113.449 1.4817 112.868 0.891493Z" fill="white"/>
<path d="M135.806 11.1385C134.615 9.56796 132.884 8.78101 130.614 8.78101C128.855 8.78101 127.477 9.21315 126.486 10.0792C125.847 10.6357 125.062 11.7438 124.583 12.4669C124.451 12.6653 124.145 12.5694 124.145 12.3307V9.83365C124.145 9.54778 123.903 9.32245 123.623 9.34768L118.284 9.82353C118.036 9.84543 117.846 10.0573 117.846 10.3095V31.5133C117.846 31.7823 118.061 32.0009 118.326 32.0009H123.664C123.929 32.0009 124.145 31.7823 124.145 31.5133V17.3012C124.145 16.5512 124.343 15.9324 124.741 15.4414C125.138 14.9521 125.641 14.5839 126.252 14.3401C126.863 14.0946 127.508 13.9718 128.191 13.9718C129.352 13.9718 130.162 14.3334 130.617 15.053C131.071 15.7727 131.298 16.8539 131.298 18.295V31.5133C131.298 31.7823 131.513 32.0009 131.778 32.0009H137.117C137.382 32.0009 137.597 31.7823 137.597 31.5133V17.7754C137.597 14.9219 137.001 12.709 135.809 11.1385H135.806Z" fill="white"/>
<path d="M77.2379 20.3042C76.8142 19.914 76.3205 19.5727 75.7561 19.2784C74.6718 18.7152 73.3276 18.3284 71.7251 18.1216L69.2967 17.7869L69.2139 17.7752C68.3065 17.6322 67.689 17.3952 67.3616 17.0622C67.0348 16.7326 66.8713 16.2618 66.8713 15.6582C66.8713 15.0545 67.1063 14.6207 67.5734 14.2743C68.0416 13.9279 68.8016 13.7564 69.8511 13.7564C70.7881 13.7564 71.7034 13.9665 72.5973 14.3819C72.9502 14.5484 73.2893 14.7384 73.6136 14.9502C73.7661 15.0495 73.9635 15.0511 74.1205 14.9587L78.059 12.65C78.3388 12.4851 78.3833 12.0917 78.1463 11.8698C77.5539 11.3148 76.9381 10.8272 76.2991 10.4068C75.4911 9.8738 74.5458 9.47021 73.4698 9.19614C72.3906 8.92375 71.0713 8.78418 69.5102 8.78418C66.843 8.78418 64.7292 9.47021 63.1681 10.8389C61.6052 12.2077 60.8269 13.9884 60.8269 16.1777C60.8269 17.5331 61.1036 18.6932 61.6566 19.6585C62.0358 20.3193 62.5471 20.8893 63.1912 21.3686C63.4876 21.5888 63.8136 21.7889 64.1696 21.9722C65.2905 22.549 66.6874 22.9525 68.361 23.1829L68.9706 23.2585L70.7864 23.4839C71.5809 23.5999 72.1553 23.8017 72.5096 24.0892C72.8657 24.3784 73.043 24.8106 73.043 25.3873C73.043 26.0498 72.8012 26.5778 72.3192 26.9663C71.8359 27.3547 70.9699 27.5497 69.722 27.5497C68.4738 27.5497 67.4095 27.2891 66.4442 26.7712C65.9771 26.5207 65.5303 26.2247 65.1032 25.8851C64.9476 25.7623 64.7354 25.7421 64.5653 25.843L60.6334 28.1484C60.3619 28.3081 60.3091 28.6881 60.5309 28.9134C61.587 29.9913 62.7627 30.8421 64.0603 31.4626C65.5351 32.1688 67.3529 32.522 69.5085 32.522C71.4388 32.522 73.1189 32.1974 74.5524 31.5484C75.9845 30.8993 77.0988 29.9997 77.8951 28.8462C78.6896 27.6943 79.085 26.3962 79.085 24.9535C79.085 22.9946 78.4695 21.4459 77.2344 20.3058L77.2379 20.3042Z" fill="white"/>
</g>
<defs>
<clipPath id="clip0_14733_2117">
<rect width="138" height="41" fill="white"/>
</clipPath>
</defs>
</svg>
