<svg width="73" height="21" viewBox="0 0 73 21" fill="none" xmlns="http://www.w3.org/2000/svg">
<g clip-path="url(#clip0_15398_24542)">
<path d="M19.9189 16.7739C19.9189 18.8328 18.2413 20.5108 16.1488 20.5471L0.449555 20.8185C0.204404 20.8226 0.00390625 20.6289 0.00390625 20.3879V13.9874C0.00390625 13.7928 0.136988 13.6223 0.32873 13.5715L12.4768 10.3691L17.9997 13.5052C19.1869 14.1794 19.9189 15.4254 19.9189 16.7739Z" fill="black"/>
<path d="M24.6492 0.432563V6.833C24.6492 7.02758 24.5161 7.1981 24.3245 7.24889L12.1764 10.4504L6.65267 7.31435C5.46545 6.64011 4.73438 5.39412 4.73438 4.04565C4.73438 1.98683 6.4119 0.308568 8.50442 0.272403L24.2037 0.00202352C24.4488 -0.0022819 24.6492 0.191462 24.6492 0.432563Z" fill="black"/>
<path d="M54.2015 7.24375C53.8555 6.34371 53.3485 5.66075 52.6811 5.19568C52.0129 4.73145 51.1765 4.49805 50.1704 4.49805C49.405 4.49805 48.7256 4.70561 48.1326 5.11816C47.7596 5.37825 47.361 5.94238 47.1168 6.32478C47.0495 6.43071 46.883 6.38333 46.883 6.2576V5.03547C46.883 4.88906 46.7553 4.77365 46.6073 4.78657L43.7829 5.03032C43.6517 5.0415 43.5508 5.15003 43.5508 5.27921V20.5692C43.5508 20.7068 43.6648 20.8188 43.8048 20.8188H46.629C46.7692 20.8188 46.883 20.7068 46.883 20.5692V14.8908C46.883 14.766 47.0486 14.7177 47.1168 14.8237C47.361 15.2017 47.7596 15.7599 48.1326 16.0251C48.7256 16.4454 49.405 16.6564 50.1704 16.6564C51.1765 16.6564 52.0129 16.423 52.6811 15.9588C53.3494 15.4937 53.8555 14.8073 54.2015 13.8987C54.5464 12.9909 54.7189 11.8799 54.7189 10.5665C54.7189 9.25306 54.5464 8.14548 54.2015 7.24375ZM51.251 11.5845C51.251 12.3079 51.0451 12.891 50.632 13.3337C50.2186 13.7764 49.6976 13.9986 49.067 13.9986C48.6458 13.9986 48.271 13.9323 47.9408 13.7996C47.6107 13.6661 47.3515 13.4706 47.1632 13.2122C46.9759 12.9539 46.8821 12.6472 46.8821 12.2933V8.86118C46.8821 8.50635 46.9759 8.19972 47.1632 7.94221C47.3515 7.68384 47.6099 7.48834 47.9408 7.35484C48.271 7.22221 48.6458 7.15589 49.067 7.15589C49.6967 7.15589 50.2186 7.37379 50.632 7.80872C51.0451 8.24538 51.251 8.83103 51.251 9.57V11.5853V11.5845Z" fill="black"/>
<path d="M56.5625 5.27888V16.1402C56.5625 16.278 56.6766 16.39 56.8166 16.39H59.6407C59.7809 16.39 59.8948 16.278 59.8948 16.1402V5.03686C59.8948 4.89044 59.7669 4.77505 59.619 4.78797L56.7948 5.02997C56.6634 5.04117 56.5625 5.14969 56.5625 5.27888ZM59.7039 0.456696C59.3955 0.153534 58.9044 0.00195312 58.2291 0.00195312C57.554 0.00195312 57.0618 0.153534 56.7543 0.456696C56.4463 0.758999 56.293 1.14656 56.293 1.61939V2.10686C56.293 2.56506 56.4463 2.94832 56.7543 3.25836C57.0618 3.56841 57.554 3.72259 58.2291 3.72259C58.9044 3.72259 59.3955 3.56756 59.7039 3.25836C60.0112 2.94832 60.1654 2.56506 60.1654 2.10686V1.61939C60.1654 1.14743 60.0112 0.758999 59.7039 0.456696Z" fill="black"/>
<path d="M71.8404 5.70553C71.2108 4.90112 70.2948 4.49805 69.0942 4.49805C68.1634 4.49805 67.4347 4.71939 66.9102 5.16296C66.5722 5.44802 66.157 6.01558 65.9039 6.38593C65.8338 6.48755 65.6719 6.43846 65.6719 6.31616V5.03721C65.6719 4.89078 65.544 4.77537 65.396 4.7883L62.5718 5.03202C62.4404 5.04324 62.3398 5.15174 62.3398 5.28093V16.1414C62.3398 16.2792 62.4535 16.3912 62.5937 16.3912H65.4179C65.5579 16.3912 65.6719 16.2792 65.6719 16.1414V8.86204C65.6719 8.47792 65.7769 8.16097 65.9871 7.90949C66.1973 7.65887 66.4636 7.47025 66.7866 7.34538C67.1098 7.21963 67.4513 7.15675 67.8121 7.15675C68.4268 7.15675 68.8551 7.34193 69.0958 7.71054C69.3358 8.07916 69.4559 8.63295 69.4559 9.37105V16.1414C69.4559 16.2792 69.5696 16.3912 69.7099 16.3912H72.5339C72.6741 16.3912 72.788 16.2792 72.788 16.1414V9.10491C72.788 7.64336 72.4728 6.50994 71.8421 5.70553H71.8404Z" fill="black"/>
<path d="M40.8562 10.4005C40.6321 10.2007 40.371 10.0258 40.0724 9.8751C39.4988 9.58659 38.7878 9.38849 37.9401 9.28256L36.6554 9.11117L36.6116 9.10514C36.1317 9.03193 35.805 8.9105 35.6318 8.73995C35.459 8.57116 35.3725 8.33002 35.3725 8.02082C35.3725 7.71164 35.4968 7.48941 35.7439 7.31201C35.9915 7.13458 36.3936 7.04673 36.9487 7.04673C37.4444 7.04673 37.9286 7.15438 38.4014 7.36713C38.5881 7.45238 38.7675 7.54972 38.9391 7.65822C39.0197 7.70905 39.1241 7.70989 39.2072 7.66255L41.2906 6.48003C41.4386 6.39562 41.4621 6.19409 41.3368 6.08042C41.0234 5.79618 40.6976 5.54643 40.3596 5.3311C39.9322 5.0581 39.4322 4.85138 38.863 4.71101C38.2921 4.57149 37.5942 4.5 36.7684 4.5C35.3575 4.5 34.2393 4.85138 33.4135 5.55244C32.5868 6.25352 32.1751 7.16558 32.1751 8.28695C32.1751 8.98113 32.3214 9.57538 32.614 10.0698C32.8146 10.4082 33.085 10.7002 33.4257 10.9457C33.5825 11.0585 33.755 11.161 33.9433 11.2548C34.5363 11.5503 35.2752 11.757 36.1605 11.8749L36.483 11.9137L37.4435 12.0291C37.8638 12.0885 38.1676 12.1919 38.3551 12.3392C38.5434 12.4873 38.6372 12.7086 38.6372 13.004C38.6372 13.3434 38.5093 13.6138 38.2543 13.8128C37.9986 14.0117 37.5406 14.1116 36.8805 14.1116C36.2202 14.1116 35.6572 13.9781 35.1465 13.7129C34.8994 13.5845 34.6631 13.433 34.4372 13.259C34.3548 13.1961 34.2426 13.1858 34.1526 13.2375L32.0727 14.4182C31.9291 14.5001 31.9011 14.6947 32.0185 14.8101C32.5771 15.3622 33.1991 15.798 33.8855 16.1158C34.6656 16.4775 35.6272 16.6584 36.7675 16.6584C37.7886 16.6584 38.6774 16.4921 39.4356 16.1597C40.1932 15.8273 40.7827 15.3665 41.2039 14.7757C41.6242 14.1857 41.8333 13.5208 41.8333 12.7818C41.8333 11.7785 41.5078 10.9853 40.8544 10.4013L40.8562 10.4005Z" fill="black"/>
</g>
<defs>
<clipPath id="clip0_15398_24542">
<rect width="73" height="21" fill="white"/>
</clipPath>
</defs>
</svg>
